<?xml version="1.0" encoding="utf-8"?>
<!-- Generator: Adobe Illustrator 19.1.0, SVG Export Plug-In . SVG Version: 6.00 Build 0)  -->
<svg version="1.1" id="Layer_1" xmlns="http://www.w3.org/2000/svg" xmlns:xlink="http://www.w3.org/1999/xlink" x="0px" y="0px"
	 width="659px" height="291px" viewBox="-150 135 659 291" style="enable-background:new -150 135 659 291;" xml:space="preserve">
<style type="text/css">
	.st0{fill:#6A4898;}
	.st1{filter:url(#Adobe_OpacityMaskFilter);}
	.st2{fill:#FFFFFF;}
	.st3{mask:url(#mask-2);fill:#6A4898;}
</style>
<title>Group 11</title>
<desc>Created with Sketch.</desc>
<g id="Page-1">
	<g id="Group-11" transform="translate(-1.000000, 1.000000)">
		<g id="Group-4-Copy-3" transform="translate(35.000000, 0.000000)">
			<g id="Group-3" transform="translate(157.000000, 143.000000)">
				<path class="st0" d="M-149.5,175c0.4,12,5.9,21.2,15.5,25.9c11.9,5.8,28.2,3.9,39.6-4.5c9.7-7.2,14.1-17.8,12.2-29.8
					c0,0,0,0,0,0c0,0,0,0,0,0c-2.4-15.5-17.3-31.1-34.6-31.1c-1.3,0-2.6,0.1-3.9,0.3C-135.8,137.8-149.9,160-149.5,175z
					 M-115.7,149.8c4.7-0.1,9.6,2.1,13.7,6.3c4.7,4.7,7.5,11,7.3,16.5c-0.4,9.8-8.5,14.7-15.2,17c-0.1,0.1-0.2,0.1-0.3,0.2l0,0.1
					c0,0-1.2,0.3-2.3,0.6c-0.3,0.1-0.6,0.2-1,0.2c0,0,0,0,0,0c-0.2,0-0.3,0.1-0.4,0.1c-0.5,0.1-0.8,0.2-0.8,0.2l0,0c0,0-0.1,0-0.1,0
					c-1.7,0.3-3.2,0.5-4.6,0.5c-5.9,0-9.5-2.6-11.7-5.2c-4.9-5.9-5.7-15.8-1.9-24.2C-129.7,154.5-123.4,150-115.7,149.8z"/>
				<path class="st0" d="M-76.3,200.5c-0.7-0.1-1.4-0.1-2.1-0.1c-8.2,0-17.2,4.9-21.9,12.1c-4.4,6.7-4.5,14.4-0.4,21.5
					c4.7,8.1,14.6,15.4,27.4,9.3c10-4.8,17.5-16.8,12.2-30.4c0,0,0,0,0,0C-64.7,203.6-71.4,201-76.3,200.5z M-78,231.9
					C-78,231.9-78,231.9-78,231.9C-78.1,231.9-78.1,232-78,231.9C-78.1,232-78.1,232-78,231.9l-0.3,0.3l-0.3,0c0,0,0,0,0,0
					c-0.1,0-0.3,0.1-0.5,0.1c-0.4,0-0.8,0.1-1.2,0.1c-4.2,0-8.3-2.4-10.3-6.3c-1.7-3.8-0.5-7.1,3.2-9.2c4.6-2.7,12.5-2.7,15.3,1.2
					C-70.4,220.4-70.1,224.7-78,231.9z"/>
			</g>
			<g id="Group">
				<polygon id="Fill-1" class="st0" points="-149.7,140.2 -149.7,258.9 -117.1,258.9 -117.1,214.7 -77.4,214.7 -77.4,188.3 
					-117.1,188.3 -117.1,168.6 -68.4,168.6 -68.4,140.2 				"/>
				<path class="st0" d="M127.4,150.9c-12-8.1-28.6-14.8-42.7-14.8c-4.7,0-9.2,0.8-13.1,2.5c-1.2,0.5-4.1,3.3-6.3,5.3
					c-1.3,1.2-2.5,2.3-3.1,2.8c-2.4,1.8-4.9,3.3-7.3,4.8c-2.8,1.7-5.7,3.5-8.3,5.5c-8.8,6.9-15.8,14.5-20.8,22.5
					c-10.8,17.4-13.3,38.5-6.7,56.6c7.2,20,21.1,34.3,40,41.5c17.6,6.7,38.2,6.5,58.1-0.5c22.1-7.8,37.9-22,44.4-40
					c-2.3-2.5-12.5-14-12.3-27.9c-0.7-4,1.4-9,3.4-13.8c2.3-5.4,4.6-10.9,2.6-14.5C148.6,169.1,139,158.7,127.4,150.9z M145.2,234.9
					c0,0.2-0.1,0.4-0.2,0.7l0.1,0c0,0-0.4,0.8-1.4,2.6c-0.2,0.4-0.5,0.9-0.8,1.5c-0.2,0.5-0.5,0.9-0.7,1.3c-0.8,1.6-1.2,2.2-1.2,2.3
					l-0.1,0c-0.4,0.6-0.6,0.7-0.9,0.6c-6.5,8.2-17.7,14.8-31.9,18.7c-7.5,2-15,3-22.1,3c-7.8,0-14.9-1.2-20.3-3.7
					c-14.9-6.7-26.1-19.1-30.7-34.1c-4.1-13.3-2.3-27.3,5-39.2c5.9-9.7,15.1-17.9,28.2-25.2c15-8.4,25.3-9.1,39.5-2.9
					c16.9,7.4,31.7,23.3,37.6,40.5C149.6,212.9,149.4,224.5,145.2,234.9z"/>
				
					<g id="Group-2" transform="translate(68.331348, 238.139613) scale(-1, 1) translate(-68.331348, -238.139613) translate(45.115021, 214.271309)">
				</g>
				<path id="Fill-2" class="st0" d="M-39,212.8c0,5.9,1.4,10.4,4.3,13.8s6.6,5,11.1,5c4.5,0,8.2-1.7,11.1-5
					c2.9-3.3,4.3-7.9,4.3-13.8c0-5.9-1.4-10.4-4.3-13.8c-2.9-3.3-6.6-5-11.1-5c-4.5,0-8.2,1.7-11.1,5C-37.6,202.4-39,206.9-39,212.8
					 M-23.6,258c-7.9,0-14.7-1.2-20.7-3.7c-5.9-2.5-10.9-5.8-14.9-9.9c-4-4.1-7.1-8.9-9.1-14.4c-2.1-5.5-3.1-11.2-3.1-17.1
					c0-6,1-11.7,3.1-17.1c2-5.5,5.1-10.3,9.1-14.4c4-4.1,9-7.5,14.9-9.9c5.9-2.5,12.8-3.7,20.7-3.7c7.7,0,14.6,1.2,20.6,3.7
					c6,2.5,11,5.8,15,9.9c4,4.1,7.1,8.9,9.1,14.4c2,5.5,3.1,11.2,3.1,17.1c0,6-1,11.7-3.1,17.1c-2.1,5.5-5.1,10.3-9.1,14.4
					c-4,4.1-9,7.5-15,9.9C-8.9,256.8-15.8,258-23.6,258"/>
			</g>
			<g id="Group-6" transform="translate(279.000000, 0.000000)">
				<g id="Clip-5">
				</g>
				<defs>
					<filter id="Adobe_OpacityMaskFilter" filterUnits="userSpaceOnUse" x="-149.6" y="135.4" width="101.9" height="122.7">
						<feColorMatrix  type="matrix" values="1 0 0 0 0  0 1 0 0 0  0 0 1 0 0  0 0 0 1 0"/>
					</filter>
				</defs>
				<mask maskUnits="userSpaceOnUse" x="-149.6" y="135.4" width="101.9" height="122.7" id="mask-2">
					<g class="st1">
						<polygon id="path-1" class="st2" points="-149.6,135.4 -47.6,135.4 -47.6,258.2 -149.6,258.2 						"/>
					</g>
				</mask>
				<path id="Fill-4" class="st3" d="M-99.8,231.6c5.7,0,10.7-3,14.9-9v-15.6c-1.6-3.9-3.8-7-6.8-9.4c-3-2.4-6.1-3.6-9.4-3.6
					c-2.3,0-4.4,0.5-6.4,1.5c-1.9,1-3.6,2.4-5,4.1c-1.4,1.8-2.5,3.8-3.3,6.1c-0.8,2.3-1.2,4.8-1.2,7.5c0,5.5,1.6,10,4.7,13.3
					C-109.2,230-105,231.6-99.8,231.6 M-108.5,258.2c-6,0-11.5-1.1-16.5-3.3c-5-2.2-9.4-5.3-13-9.4c-3.6-4-6.5-8.9-8.5-14.4
					c-2-5.6-3.1-11.7-3.1-18.3c0-6.4,0.9-12.4,2.8-17.9c1.9-5.5,4.5-10.3,7.9-14.3c3.4-4,7.4-7.2,12-9.5c4.6-2.3,9.8-3.4,15.4-3.4
					s10.8,1.3,15.5,3.8c4.7,2.5,8.3,6.1,10.9,10.8v-46.8h31.5v86.3c0,3,0.4,5.1,1.3,6.2c0.9,1.2,2.4,1.9,4.6,2.1v26.5
					c-5.4,1.1-9.8,1.7-13.3,1.7c-10.7,0-16.9-4-18.6-12.1l-0.7-3.2c-3,5.3-7,9.2-12.1,11.6C-97.3,256.9-102.7,258.2-108.5,258.2"/>
			</g>
		</g>
		<path id="Path-16-Copy" class="st0" d="M-150,135"/>
		<path id="Th-ught" class="st0" d="M-47.5,296.8h-34.1V387h-32.6v-90.2h-34.2v-28.4h100.9V296.8z M48.5,387H16.7v-49.4
			c0-4.3-1-7.5-2.9-9.4c-1.9-1.9-4.4-2.9-7.3-2.9c-1,0-2.2,0.3-3.6,0.9c-1.4,0.6-2.8,1.4-4.2,2.5s-2.7,2.4-3.9,3.9
			c-1.2,1.6-2.2,3.3-3,5.2V387h-31.7V265.1h31.7v47.1C-5,307.4-1,303.8,4,301.2c5-2.5,10.6-3.8,16.9-3.8c6.1,0,11,1.1,14.7,3.2
			c3.7,2.1,6.5,4.8,8.3,7.9c1.9,3.2,3.1,6.6,3.7,10.3s0.8,7.1,0.8,10.4V387z M162.5,388.7c-8.9,0-15.7-2.7-20.4-8.1
			c-4.7-5.4-7-13.3-7-23.6v-57.8h31.7v50.6c0,3.9,0.9,6.9,2.6,9c1.7,2.1,4.1,3.2,7.1,3.2c2.4,0,5-0.6,7.5-1.7s5.1-3.6,7.7-7.3v-53.8
			h31.7v52.8c0,3,0.4,5.1,1.3,6.3c0.9,1.2,2.4,1.9,4.7,2.1V387c-5.5,1.1-9.9,1.7-13.4,1.7c-10.8,0-17-4.1-18.7-12.2l-0.7-3.2
			c-4.1,5.5-9,9.4-14.7,11.8S169.9,388.7,162.5,388.7z M274.2,387c-5.7,0-10.9-1.1-15.6-3.4c-4.7-2.3-8.8-5.4-12.1-9.4
			c-3.3-4-5.9-8.6-7.8-13.9s-2.8-11.1-2.8-17.4c0-6.6,1-12.6,3-18.2c2-5.6,4.8-10.4,8.4-14.4c3.6-4,7.9-7.2,12.9-9.4
			c5-2.3,10.5-3.4,16.5-3.4c6.3,0,11.9,1.3,16.7,3.8c4.8,2.5,8.6,6.2,11.4,10.9v-13h27.6V379c0,6.9-1.3,13.1-3.8,18.7
			c-2.6,5.6-6.2,10.3-10.9,14.2c-4.7,3.9-10.3,6.9-16.9,9.1c-6.6,2.2-13.9,3.3-21.9,3.3c-9.4,0-17.5-1.4-24.4-4.3
			c-6.9-2.9-13-7.1-18.4-12.5L253,390c3.2,3,7.1,5.5,11.6,7.6c4.5,2.1,9.3,3.1,14.4,3.1c2.9,0,5.7-0.4,8.3-1.2
			c2.6-0.8,4.9-2,6.9-3.8c2-1.7,3.6-4,4.8-6.8s1.8-6.1,1.8-10v-5.7c-2.6,4.7-6.2,8.1-10.9,10.4C285,385.9,279.8,387,274.2,387z
			 M285.5,362c3.2,0,6-0.8,8.4-2.3s4.6-3.8,6.8-6.8v-15.7c-1.6-4-3.9-7.2-6.9-9.5s-6.3-3.5-9.6-3.5c-2.2,0-4.3,0.5-6.3,1.6
			c-1.9,1.1-3.6,2.4-5.1,4.2c-1.4,1.7-2.6,3.8-3.3,6.2c-0.8,2.4-1.2,4.9-1.2,7.6c0,5.5,1.6,9.9,4.8,13.2
			C276.4,360.3,280.5,362,285.5,362z M434.7,387H403v-49.4c0-4.3-1-7.5-2.9-9.4c-1.9-1.9-4.4-2.9-7.3-2.9c-1,0-2.2,0.3-3.6,0.9
			c-1.4,0.6-2.8,1.4-4.2,2.5s-2.7,2.4-3.9,3.9c-1.2,1.6-2.2,3.3-3,5.2V387h-31.7V265.1h31.7v47.1c3.1-4.8,7.2-8.4,12.2-10.9
			c5-2.5,10.6-3.8,16.9-3.8c6.1,0,11,1.1,14.7,3.2c3.7,2.1,6.5,4.8,8.4,7.9c1.9,3.2,3.1,6.6,3.7,10.3c0.6,3.7,0.8,7.1,0.8,10.4V387z
			 M509.6,382.2c-4.5,1.9-9.2,3.5-14.3,4.8c-5.1,1.3-10,1.9-14.9,1.9c-3.6,0-7-0.4-10.2-1.3c-3.2-0.9-6-2.3-8.4-4.3
			s-4.3-4.6-5.7-7.8s-2.1-7.2-2.1-12V323h-10.9v-23.9H454v-27.6h31.7v27.6h17.2V323h-17.2v29.1c0,2.9,0.6,4.9,1.8,6.1s2.9,1.8,5,1.8
			c1.6,0,3.3-0.3,5.3-0.8c2-0.5,4-1.2,6-2.1L509.6,382.2z"/>
	</g>
</g>
<path class="st0" d="M415.9,246.3c3.2,1,7.3-0.1,8.8-4.3c1-2.9,1.8-6.1,2.5-9.1c2.6-11.2,5.1-21.8,21.7-21.8c0,0,0,0,0,0
	c4.4,0,6.5-3.5,6.5-6.7c0-3.2-2-6.7-6.5-6.7h0c-6.1,0-13.2,0.4-19.2,3.3l-0.3,0.2l-0.3-0.2c-1.5-1.5-3.8-2.2-6.1-1.9
	c-2.1,0.3-3.8,1.4-4.7,3c-5.3,9-15.2,20-25.9,21.5c-5.3,0.7-10.1-0.9-14.2-4.9l-0.1-0.1l0-0.2c-1.2-8.9-7.4-14.5-17-15.4l-0.2,0
	l-0.1-0.1c-1.3-1.3-3-1.9-4.8-1.7l-0.1,0l-0.1,0c-1.1-0.2-2.2-0.1-3.4,0.3c-15.5,5.9-32.1,8.1-48,6.3l-1.2-0.1l1-0.8
	c13.1-9.8,42.9-34.5,35.9-51.3c-1.7-4.1-4.6-6.6-8.7-7.3c-0.8-0.1-1.7-0.2-2.6-0.2c-6.9,0-14.9,4.3-19.3,9.1
	c-9.5,10.3-16.6,25.3-21.2,44.5l0,0.2l-0.3,0.2c-0.1,0.1-0.2,0.1-0.3,0.2c-1.6,1-2.6,2.5-2.9,4.2c-0.4,1.9,0.1,4,1.3,5.6l0.1,0.2
	l0,0.2c-0.4,2.1-0.7,4.3-1,6.4c-4.8,33.9-2.6,57,6.4,68.5c3.7,4.7,8.6,7.5,14.5,8.1c5.5,0.6,10.2-0.8,13.8-4
	c5.1-4.5,8.1-12.7,8.3-22.4c0.3-15.7-4.8-31.4-15.2-46.6l-0.5-0.8l1,0c7.7,0.2,15.5-0.4,23.1-1.8l0.9-0.2l-0.4,0.9
	c-1.7,3.7-2.8,7.4-3.2,11.1c-0.6,5.6,1.1,10.3,4.9,13.6c4.7,4.1,12.2,5.5,19.4,3.6c7.8-2,14.3-7.8,17.8-15.7l0.2-0.5l0.5,0.2
	c13.8,6.9,23.8,3,37.3-6.6l1-0.7l-0.2,1.2c-0.9,4.4-1.8,8.2-2.7,11.7C410.6,242.6,413,245.4,415.9,246.3z M312.7,176.1L312.7,176.1
	c0.1-0.2,10.8-18.3,14.5-16.6c0.2,0.1,0.3,0.2,0.4,0.5c0.4,1.5-6.1,10.2-6.1,10.3c-3.4,4.5-7.2,8.9-11.4,13.2l-0.8-0.6
	C310.5,180.2,311.6,178,312.7,176.1z M314.2,261.6c0.8,7.1-1.7,19-6.3,20.3c-0.3,0.1-0.6,0.1-0.9,0.1c-2.3,0-4.5-2.4-6.8-7.3
	c-6.7-14.3-4.3-35.3-2.7-49.2l0.1-1.2l0.8,1C307.6,237.2,312.8,249.1,314.2,261.6z M364.8,223.3c-0.6,6.2-4.8,11.3-10.4,12.7
	c-1.1,0.3-2.4,0.5-3.6,0.5c-1.7,0-3.2-0.4-3.9-1.8c-0.9-1.6,0.5-5.2,1.8-8.1l0.1-0.1c1.6-3.8,4.2-7.2,7.5-10l0.1-0.1l0.2,0
	c1.6-0.1,2.8-0.1,3.9,0.1l0.2,0l0.1,0.2c1.2,2.5,2.5,4.6,3.8,6.3l0.1,0.1V223.3z"/>
</svg>
