<?xml version="1.0" encoding="utf-8"?>
<!-- Generator: Adobe Illustrator 19.1.0, SVG Export Plug-In . SVG Version: 6.00 Build 0)  -->
<svg version="1.1" id="Layer_1" xmlns="http://www.w3.org/2000/svg" xmlns:xlink="http://www.w3.org/1999/xlink" x="0px" y="0px"
	 width="24px" height="24px" viewBox="-285 408.9 24 24" style="enable-background:new -285 408.9 24 24;" xml:space="preserve">
<style type="text/css">
	.st0{fill:#6A4898;}
</style>
<title  id="simpleicons-instagram-icon">Instagram icon</title>
<path class="st0" d="M-273,408.9c-3.3,0-3.7,0-4.9,0.1c-1.3,0.1-2.1,0.3-2.9,0.6c-0.8,0.3-1.5,0.7-2.1,1.4c-0.7,0.7-1.1,1.3-1.4,2.1
	c-0.3,0.8-0.5,1.6-0.6,2.9c-0.1,1.3-0.1,1.7-0.1,4.9c0,3.3,0,3.7,0.1,4.9c0.1,1.3,0.3,2.1,0.6,2.9c0.3,0.8,0.7,1.5,1.4,2.1
	c0.7,0.7,1.3,1.1,2.1,1.4c0.8,0.3,1.6,0.5,2.9,0.6c1.3,0.1,1.7,0.1,4.9,0.1s3.7,0,4.9-0.1c1.3-0.1,2.1-0.3,2.9-0.6
	c0.8-0.3,1.5-0.7,2.1-1.4c0.7-0.7,1.1-1.3,1.4-2.1c0.3-0.8,0.5-1.6,0.6-2.9c0.1-1.3,0.1-1.7,0.1-4.9c0-3.3,0-3.7-0.1-4.9
	c-0.1-1.3-0.3-2.1-0.6-2.9c-0.3-0.8-0.7-1.5-1.4-2.1c-0.7-0.7-1.3-1.1-2.1-1.4c-0.8-0.3-1.6-0.5-2.9-0.6
	C-269.3,408.9-269.7,408.9-273,408.9z M-273,411c3.2,0,3.6,0,4.9,0.1c1.2,0.1,1.8,0.2,2.2,0.4c0.6,0.2,1,0.5,1.4,0.9
	c0.4,0.4,0.7,0.8,0.9,1.4c0.2,0.4,0.4,1.1,0.4,2.2c0.1,1.3,0.1,1.6,0.1,4.9c0,3.2,0,3.6-0.1,4.8c-0.1,1.2-0.3,1.8-0.4,2.2
	c-0.2,0.6-0.5,1-0.9,1.4c-0.4,0.4-0.8,0.7-1.4,0.9c-0.4,0.2-1.1,0.4-2.2,0.4c-1.3,0.1-1.6,0.1-4.9,0.1c-3.2,0-3.6,0-4.9-0.1
	c-1.2-0.1-1.8-0.3-2.2-0.4c-0.6-0.2-1-0.5-1.4-0.9c-0.4-0.4-0.7-0.8-0.9-1.4c-0.2-0.4-0.4-1.1-0.4-2.2c0-1.3-0.1-1.6-0.1-4.8
	c0-3.2,0-3.6,0.1-4.9c0.1-1.2,0.3-1.8,0.4-2.2c0.2-0.6,0.5-1,0.9-1.4c0.4-0.4,0.8-0.7,1.4-0.9c0.4-0.2,1.1-0.4,2.2-0.4
	C-276.6,411-276.3,411-273,411C-273,411-273,411-273,411z M-273,414.7c-3.4,0-6.2,2.8-6.2,6.2c0,3.4,2.8,6.2,6.2,6.2
	c3.4,0,6.2-2.8,6.2-6.2C-266.8,417.5-269.6,414.7-273,414.7z M-273,424.9c-2.2,0-4-1.8-4-4c0-2.2,1.8-4,4-4s4,1.8,4,4
	C-269,423.1-270.8,424.9-273,424.9z M-265.2,414.5c0,0.8-0.6,1.4-1.4,1.4c-0.8,0-1.4-0.6-1.4-1.4c0-0.8,0.6-1.4,1.4-1.4
	C-265.8,413-265.2,413.7-265.2,414.5z"/>
</svg>
